<svg width="64" height="29" viewBox="0 0 64 29" fill="none" xmlns="http://www.w3.org/2000/svg">
<path d="M32.5869 23V5.22656H38.0557C39.6182 5.22656 41.0138 5.58057 42.2427 6.28857C43.4797 6.98844 44.444 7.98942 45.1357 9.2915C45.8275 10.5854 46.1733 12.0584 46.1733 13.7104V14.5283C46.1733 16.1803 45.8315 17.6493 45.1479 18.9351C44.4725 20.2209 43.5163 21.2178 42.2793 21.9258C41.0423 22.6338 39.6466 22.9919 38.0923 23H32.5869ZM36.249 8.19287V20.0581H38.019C39.4513 20.0581 40.5459 19.5902 41.3027 18.6543C42.0596 17.7184 42.4461 16.3797 42.4624 14.6382V13.6982C42.4624 11.8916 42.0881 10.5244 41.3394 9.59668C40.5907 8.66081 39.4961 8.19287 38.0557 8.19287H36.249ZM48.8467 23V5.22656H55.0723C57.2288 5.22656 58.8646 5.6416 59.9795 6.47168C61.0944 7.29362 61.6519 8.50212 61.6519 10.0972C61.6519 10.9679 61.4281 11.737 60.9805 12.4043C60.5329 13.0635 59.9103 13.5477 59.1128 13.8569C60.0243 14.0848 60.7404 14.5446 61.2612 15.2363C61.7902 15.9281 62.0547 16.7744 62.0547 17.7754C62.0547 19.4844 61.5094 20.7783 60.4189 21.6572C59.3285 22.5361 57.7741 22.9837 55.7559 23H48.8467ZM52.5088 15.2607V20.0581H55.646C56.5086 20.0581 57.18 19.8547 57.6602 19.4478C58.1484 19.0327 58.3926 18.4631 58.3926 17.7388C58.3926 16.1112 57.5503 15.2852 55.8657 15.2607H52.5088ZM52.5088 12.6729H55.2188C57.0661 12.6403 57.9897 11.9038 57.9897 10.4634C57.9897 9.65771 57.7537 9.07992 57.2817 8.72998C56.8179 8.37191 56.0814 8.19287 55.0723 8.19287H52.5088V12.6729Z" fill="#3D9896"/>
<path d="M14.5 26.1H26.1V29H14.5C6.49165 29 0 22.5084 0 14.5C0 6.49165 6.49165 0 14.5 0C22.5083 0 29 6.49165 29 14.5C29.0046 17.6381 27.9866 20.6923 26.1 23.2H22.1734C24.2096 21.4043 25.5514 18.9512 25.9652 16.268C26.379 13.5849 25.8385 10.8415 24.438 8.51579C23.0374 6.19004 20.8655 4.42921 18.3003 3.53994C15.7352 2.65067 12.9394 2.68928 10.3998 3.64907C7.86025 4.60885 5.73776 6.42899 4.40196 8.79254C3.06617 11.1561 2.60171 13.9133 3.08946 16.584C3.57721 19.2547 4.98626 21.6698 7.07126 23.4086C9.15626 25.1474 11.7851 26.0998 14.5 26.1V26.1ZM14.5 11.6C13.7309 11.6 12.9932 11.2945 12.4494 10.7506C11.9055 10.2068 11.6 9.46913 11.6 8.7C11.6 7.93087 11.9055 7.19325 12.4494 6.64939C12.9932 6.10553 13.7309 5.8 14.5 5.8C15.2691 5.8 16.0067 6.10553 16.5506 6.64939C17.0945 7.19325 17.4 7.93087 17.4 8.7C17.4 9.46913 17.0945 10.2068 16.5506 10.7506C16.0067 11.2945 15.2691 11.6 14.5 11.6ZM8.7 17.4C7.93087 17.4 7.19324 17.0945 6.64939 16.5506C6.10553 16.0068 5.8 15.2691 5.8 14.5C5.8 13.7309 6.10553 12.9932 6.64939 12.4494C7.19324 11.9055 7.93087 11.6 8.7 11.6C9.46912 11.6 10.2067 11.9055 10.7506 12.4494C11.2945 12.9932 11.6 13.7309 11.6 14.5C11.6 15.2691 11.2945 16.0068 10.7506 16.5506C10.2067 17.0945 9.46912 17.4 8.7 17.4ZM20.3 17.4C19.5309 17.4 18.7932 17.0945 18.2494 16.5506C17.7055 16.0068 17.4 15.2691 17.4 14.5C17.4 13.7309 17.7055 12.9932 18.2494 12.4494C18.7932 11.9055 19.5309 11.6 20.3 11.6C21.0691 11.6 21.8067 11.9055 22.3506 12.4494C22.8945 12.9932 23.2 13.7309 23.2 14.5C23.2 15.2691 22.8945 16.0068 22.3506 16.5506C21.8067 17.0945 21.0691 17.4 20.3 17.4V17.4ZM14.5 23.2C13.7309 23.2 12.9932 22.8945 12.4494 22.3506C11.9055 21.8068 11.6 21.0691 11.6 20.3C11.6 19.5309 11.9055 18.7932 12.4494 18.2494C12.9932 17.7055 13.7309 17.4 14.5 17.4C15.2691 17.4 16.0067 17.7055 16.5506 18.2494C17.0945 18.7932 17.4 19.5309 17.4 20.3C17.4 21.0691 17.0945 21.8068 16.5506 22.3506C16.0067 22.8945 15.2691 23.2 14.5 23.2Z" fill="#3D9896"/>
</svg>
